
<svg version="1.1" id="Layer_1" xmlns="http://www.w3.org/2000/svg" xmlns:xlink="http://www.w3.org/1999/xlink" x="0px" y="0px" viewBox="0 0 750 541" enable-background="new 0 0 750 541" xml:space="preserve">
<path fill="#000000" opacity="0.000000" stroke="none" d="
M751.000000,204.000000
	C751.000000,316.999969 751.000000,429.499969 751.000000,542.000000
	C501.000061,542.000000 251.000137,542.000000 1.000146,542.000000
	C1.000097,361.666779 1.000097,181.333527 1.000049,1.000219
	C250.999863,1.000146 500.999725,1.000146 750.999756,1.000073
	C751.000000,68.500000 751.000000,136.000000 751.000000,204.000000
M555.500000,359.000000
	C576.529968,359.000000 597.559998,359.000000 619.101013,359.000000
	C614.542908,371.806824 610.340332,383.614655 605.932373,395.999603
	C608.298645,395.999603 610.109192,395.999634 611.919739,395.999634
	C650.579468,395.999725 689.239136,396.000519 727.898865,395.999207
	C734.894592,395.998962 735.908936,394.996552 736.988770,388.167877
	C738.657898,377.612793 740.770935,367.122040 742.209839,356.537933
	C743.764343,345.103363 745.567505,333.608398 745.787781,322.111511
	C746.041016,308.894745 745.368347,295.566467 743.836670,282.433746
	C742.047546,267.094147 739.430725,251.797440 736.154724,236.703110
	C733.828674,225.985504 730.152527,215.513733 726.452637,205.155960
	C723.319214,196.383926 719.598572,187.783340 715.563782,179.382584
	C711.729431,171.399292 707.536560,163.529587 702.806519,156.049286
	C696.213867,145.623550 689.261963,135.393768 681.918152,125.484566
	C676.415894,118.060249 670.305176,111.039093 664.005127,104.266632
	C657.087097,96.829903 649.883545,89.616264 642.352600,82.804970
	C635.758911,76.841400 628.764587,71.256226 621.542358,66.067574
	C611.060120,58.536880 600.602539,50.829605 589.413757,44.464516
	C578.077087,38.015312 566.034790,32.699722 553.983521,27.645828
	C543.398315,23.206749 532.527405,19.278624 521.497925,16.118458
	C510.941895,13.093907 500.054810,11.162541 489.246429,9.100939
	C480.674591,7.465950 471.999481,5.216429 463.374237,5.233757
	C437.213684,5.286314 410.871216,2.687277 384.998383,8.975968
	C368.743073,12.927000 352.338348,16.370323 336.296936,21.055801
	C325.946350,24.079071 316.015594,28.675575 306.114197,33.058357
	C298.048462,36.628586 290.239838,40.804787 282.448639,44.958836
	C278.816803,46.895214 275.496185,49.415348 272.034515,51.670876
	C272.252136,52.160313 272.469788,52.649746 272.687408,53.139183
	C275.094055,52.276276 277.458069,51.260513 279.914429,50.575928
	C293.178711,46.879154 306.548706,43.538078 319.723572,39.550144
	C335.145050,34.882187 351.042969,34.838715 366.848083,34.126411
	C375.267029,33.746983 383.820526,34.070007 392.178467,35.134525
	C406.025513,36.898167 419.858978,39.063969 433.513031,41.939373
	C442.140259,43.756168 450.535675,46.886143 458.844757,49.944141
	C467.991180,53.310303 477.230927,56.666142 485.862915,61.124439
	C496.274628,66.501923 506.373657,72.615105 516.080627,79.188583
	C525.067505,85.274338 533.730103,91.968330 541.850586,99.167068
	C549.774292,106.191315 557.578491,113.605728 564.099365,121.899117
	C574.846252,135.567108 585.303711,149.595108 594.430786,164.368652
	C604.537537,180.727859 612.030029,198.568359 617.000854,217.211014
	C620.295105,229.565735 622.696716,242.185455 624.926819,254.787598
	C626.446167,263.373322 626.958191,272.136017 627.958984,280.815186
	C628.642395,286.742950 626.773376,288.995667 621.018921,288.996979
	C594.357056,289.002930 567.695190,289.004547 541.033325,288.988525
	C539.347412,288.987518 537.661621,288.823883 535.695190,288.721252
	C541.876831,279.581970 547.434204,270.953094 553.408997,262.623657
	C563.800537,248.136597 574.512878,233.879425 584.874939,219.371689
	C585.730652,218.173584 585.684082,215.241241 584.796509,214.068024
	C579.737793,207.381149 574.830383,200.435577 568.858032,194.618591
	C560.283081,186.266663 551.448242,177.907730 541.590698,171.223679
	C531.781494,164.572433 520.623596,159.880508 509.905304,154.639893
	C508.671753,154.036774 505.699646,154.842072 504.834778,155.981781
	C499.328979,163.237030 494.211578,170.785934 488.922791,178.207169
	C476.965668,194.985367 465.004242,211.760574 453.003479,228.507568
	C445.759216,238.616913 438.340302,248.602234 431.176727,258.767914
	C422.756653,270.716614 414.658417,282.893097 406.180817,294.800018
	C397.269440,307.316223 387.972351,319.557495 379.035492,332.055939
	C371.829834,342.133240 365.029999,352.500702 357.824921,362.578369
	C351.926605,370.828247 345.627625,378.790741 339.653809,386.988159
	C337.802399,389.528717 336.434357,392.421570 334.352264,396.000000
	C341.951569,396.000000 348.417358,396.000031 354.883118,396.000000
	C387.877167,395.999756 420.871307,396.026306 453.865112,395.932678
	C455.843414,395.927063 458.688721,395.618927 459.658264,394.337555
	C467.439758,384.053314 475.042145,373.620087 482.292328,362.955750
	C484.376709,359.889771 486.532593,358.923859 490.011902,358.942566
	C511.507416,359.058136 533.003845,359.000244 555.500000,359.000000
M100.518768,178.973007
	C94.828957,191.685043 89.150520,204.402176 83.445061,217.107178
	C80.027130,224.718277 76.504868,232.283081 73.141754,239.918121
	C69.063911,249.175751 65.130066,258.496704 61.083889,267.768433
	C58.794670,273.014099 56.335308,278.185944 54.076473,283.444305
	C50.387306,292.032288 46.894848,300.705566 43.143501,309.265808
	C38.867115,319.024170 34.393677,328.696136 30.013777,338.409210
	C24.227896,351.240204 18.407131,364.055786 12.686793,376.915985
	C9.980076,383.001038 7.471791,389.174347 4.685199,395.752472
	C7.009089,395.860626 8.492203,395.989929 9.975328,395.990082
	C102.122498,395.999542 194.270172,396.127594 286.415955,395.771393
	C294.432037,395.740417 303.049835,393.840729 310.311371,390.481445
	C323.516144,384.372742 331.747711,372.519867 339.756439,360.726898
	C345.799438,351.828522 352.456024,343.349030 358.696655,334.581360
	C360.846436,331.561066 362.564636,328.233612 365.212921,323.826843
	C290.816528,323.826843 218.137512,323.826843 144.584183,323.826843
	C171.437073,263.246399 197.900925,203.543610 224.539017,143.447708
	C222.695480,143.203339 222.042068,143.041306 221.388565,143.040924
	C187.729141,143.020767 154.069183,142.943085 120.411560,143.184784
	C118.406792,143.199173 115.484604,145.341690 114.581734,147.248108
	C109.740967,157.469284 105.405472,167.929779 100.518768,178.973007
M505.360962,87.108009
	C419.975922,36.441544 333.932526,34.921612 247.067902,83.383949
	C229.054642,93.433662 196.822403,120.534920 196.633347,127.118439
	C213.254425,127.118439 229.866959,127.118439 248.091980,127.118439
	C235.756165,158.256775 221.597809,187.468201 208.760330,217.223755
	C195.826462,247.202698 182.014694,276.803162 169.005066,307.570068
	C198.820755,307.570068 227.190063,307.570068 255.251770,307.570068
	C256.198212,298.578400 256.729156,289.988068 258.092194,281.531860
	C259.605438,272.143799 260.989044,262.575867 264.031036,253.631012
	C268.439972,240.666641 273.778503,228.058716 281.110718,216.227142
	C290.558624,200.981613 301.583038,187.200348 314.755310,175.183105
	C320.854614,169.618652 327.544220,164.572495 334.478851,160.083298
	C344.251770,153.756714 354.089905,147.247345 364.661194,142.516830
	C375.343903,137.736435 387.033936,135.255707 398.137695,131.354767
	C410.368011,127.058052 423.090729,126.612274 435.766113,126.121048
	C443.859009,125.807419 452.001068,127.010132 460.114410,126.921104
	C474.724213,126.760788 488.549774,130.648453 502.140411,135.103439
	C513.125549,138.704346 524.026367,143.005829 534.246887,148.365204
	C543.583008,153.260864 552.424011,159.416931 560.623718,166.076004
	C569.061523,172.928436 576.541809,180.978409 584.274902,188.671448
	C587.612976,191.992233 590.533386,195.732956 593.643494,199.282913
	C594.100525,199.059799 594.557495,198.836685 595.014526,198.613571
	C595.014526,197.440430 595.382568,196.108124 594.955139,195.119858
	C592.083496,188.480438 589.535583,181.630432 585.942078,175.390335
	C580.496521,165.934128 574.742737,156.581970 568.277466,147.806183
	C561.152039,138.134277 553.356323,128.909592 545.303833,119.985245
	C540.663635,114.842690 535.069824,110.517960 529.669495,106.114105
	C521.888367,99.768822 513.892883,93.686394 505.360962,87.108009
M466.567230,486.004608
	C464.449036,486.331573 462.339020,486.869873 460.211334,486.952454
	C441.261169,487.687927 422.560272,485.505768 404.013367,481.833740
	C400.959290,481.229034 398.021790,480.013977 395.048645,479.026245
	C386.965363,476.340759 378.805054,473.854645 370.847382,470.835846
	C366.165710,469.059875 361.697571,466.619537 357.334808,464.125732
	C348.544617,459.101074 339.315430,454.592651 331.313782,448.497498
	C318.338898,438.614044 305.690125,428.150299 296.141235,414.612335
	C294.173157,411.822083 291.785187,410.887634 288.251068,410.901093
	C247.420853,411.056671 206.589844,411.000427 165.759048,411.000427
	C163.983063,411.000427 162.207077,411.000427 158.942383,411.000427
	C162.534180,416.905457 165.144226,421.968689 168.472198,426.505310
	C175.185928,435.657318 181.745209,445.020752 189.377792,453.374512
	C197.957947,462.765381 207.319916,471.524292 216.968246,479.830414
	C224.505249,486.319000 232.802200,491.995789 241.131363,497.470551
	C247.667770,501.766937 254.590973,505.580963 261.665283,508.926422
	C270.862183,513.275635 280.291290,517.175903 289.786957,520.837585
	C296.827057,523.552307 304.022003,526.038025 311.346558,527.800415
	C321.411041,530.222046 331.612274,532.202026 341.849426,533.743347
	C351.797394,535.241211 361.857300,536.711853 371.881439,536.808655
	C384.775238,536.933289 397.707031,535.980225 410.577271,534.934570
	C425.206665,533.746155 439.509247,530.530273 453.437195,525.928650
	C460.128113,523.718018 466.476227,520.484070 473.135925,518.161804
	C486.745239,513.416138 498.873871,505.872681 510.483521,497.700836
	C520.184631,490.872437 529.009644,482.756195 537.911438,474.859528
	C540.918640,472.191864 542.972717,468.449738 545.462341,465.198639
	C545.098206,464.722015 544.734131,464.245392 544.369995,463.768738
	C542.404663,464.269714 540.239319,464.399109 538.506409,465.331940
	C527.166870,471.436218 515.301819,476.024139 502.934357,479.715729
	C491.285278,483.192902 479.403839,484.510315 466.567230,486.004608
z"></path>
<path fill="#003594" opacity="1.000000" stroke="none" d="
M555.000000,359.000000
	C533.003845,359.000244 511.507416,359.058136 490.011902,358.942566
	C486.532593,358.923859 484.376709,359.889771 482.292328,362.955750
	C475.042145,373.620087 467.439758,384.053314 459.658264,394.337555
	C458.688721,395.618927 455.843414,395.927063 453.865112,395.932678
	C420.871307,396.026306 387.877167,395.999756 354.883118,396.000000
	C348.417358,396.000031 341.951569,396.000000 334.352264,396.000000
	C336.434357,392.421570 337.802399,389.528717 339.653809,386.988159
	C345.627625,378.790741 351.926605,370.828247 357.824921,362.578369
	C365.029999,352.500702 371.829834,342.133240 379.035492,332.055939
	C387.972351,319.557495 397.269440,307.316223 406.180817,294.800018
	C414.658417,282.893097 422.756653,270.716614 431.176727,258.767914
	C438.340302,248.602234 445.759216,238.616913 453.003479,228.507568
	C465.004242,211.760574 476.965668,194.985367 488.922791,178.207169
	C494.211578,170.785934 499.328979,163.237030 504.834778,155.981781
	C505.699646,154.842072 508.671753,154.036774 509.905304,154.639893
	C520.623596,159.880508 531.781494,164.572433 541.590698,171.223679
	C551.448242,177.907730 560.283081,186.266663 568.858032,194.618591
	C574.830383,200.435577 579.737793,207.381149 584.796509,214.068024
	C585.684082,215.241241 585.730652,218.173584 584.874939,219.371689
	C574.512878,233.879425 563.800537,248.136597 553.408997,262.623657
	C547.434204,270.953094 541.876831,279.581970 535.695190,288.721252
	C537.661621,288.823883 539.347412,288.987518 541.033325,288.988525
	C567.695190,289.004547 594.357056,289.002930 621.018921,288.996979
	C626.773376,288.995667 628.642395,286.742950 627.958984,280.815186
	C626.958191,272.136017 626.446167,263.373322 624.926819,254.787598
	C622.696716,242.185455 620.295105,229.565735 617.000854,217.211014
	C612.030029,198.568359 604.537537,180.727859 594.430786,164.368652
	C585.303711,149.595108 574.846252,135.567108 564.099365,121.899117
	C557.578491,113.605728 549.774292,106.191315 541.850586,99.167068
	C533.730103,91.968330 525.067505,85.274338 516.080627,79.188583
	C506.373657,72.615105 496.274628,66.501923 485.862915,61.124439
	C477.230927,56.666142 467.991180,53.310303 458.844757,49.944141
	C450.535675,46.886143 442.140259,43.756168 433.513031,41.939373
	C419.858978,39.063969 406.025513,36.898167 392.178467,35.134525
	C383.820526,34.070007 375.267029,33.746983 366.848083,34.126411
	C351.042969,34.838715 335.145050,34.882187 319.723572,39.550144
	C306.548706,43.538078 293.178711,46.879154 279.914429,50.575928
	C277.458069,51.260513 275.094055,52.276276 272.687408,53.139183
	C272.469788,52.649746 272.252136,52.160313 272.034515,51.670876
	C275.496185,49.415348 278.816803,46.895214 282.448639,44.958836
	C290.239838,40.804787 298.048462,36.628586 306.114197,33.058357
	C316.015594,28.675575 325.946350,24.079071 336.296936,21.055801
	C352.338348,16.370323 368.743073,12.927000 384.998383,8.975968
	C410.871216,2.687277 437.213684,5.286314 463.374237,5.233757
	C471.999481,5.216429 480.674591,7.465950 489.246429,9.100939
	C500.054810,11.162541 510.941895,13.093907 521.497925,16.118458
	C532.527405,19.278624 543.398315,23.206749 553.983521,27.645828
	C566.034790,32.699722 578.077087,38.015312 589.413757,44.464516
	C600.602539,50.829605 611.060120,58.536880 621.542358,66.067574
	C628.764587,71.256226 635.758911,76.841400 642.352600,82.804970
	C649.883545,89.616264 657.087097,96.829903 664.005127,104.266632
	C670.305176,111.039093 676.415894,118.060249 681.918152,125.484566
	C689.261963,135.393768 696.213867,145.623550 702.806519,156.049286
	C707.536560,163.529587 711.729431,171.399292 715.563782,179.382584
	C719.598572,187.783340 723.319214,196.383926 726.452637,205.155960
	C730.152527,215.513733 733.828674,225.985504 736.154724,236.703110
	C739.430725,251.797440 742.047546,267.094147 743.836670,282.433746
	C745.368347,295.566467 746.041016,308.894745 745.787781,322.111511
	C745.567505,333.608398 743.764343,345.103363 742.209839,356.537933
	C740.770935,367.122040 738.657898,377.612793 736.988770,388.167877
	C735.908936,394.996552 734.894592,395.998962 727.898865,395.999207
	C689.239136,396.000519 650.579468,395.999725 611.919739,395.999634
	C610.109192,395.999634 608.298645,395.999603 605.932373,395.999603
	C610.340332,383.614655 614.542908,371.806824 619.101013,359.000000
	C597.559998,359.000000 576.529968,359.000000 555.000000,359.000000
z"></path>
<path fill="#003594" opacity="1.000000" stroke="none" d="
M100.707092,178.640289
	C105.405472,167.929779 109.740967,157.469284 114.581734,147.248108
	C115.484604,145.341690 118.406792,143.199173 120.411560,143.184784
	C154.069183,142.943085 187.729141,143.020767 221.388565,143.040924
	C222.042068,143.041306 222.695480,143.203339 224.539017,143.447708
	C197.900925,203.543610 171.437073,263.246399 144.584183,323.826843
	C218.137512,323.826843 290.816528,323.826843 365.212921,323.826843
	C362.564636,328.233612 360.846436,331.561066 358.696655,334.581360
	C352.456024,343.349030 345.799438,351.828522 339.756439,360.726898
	C331.747711,372.519867 323.516144,384.372742 310.311371,390.481445
	C303.049835,393.840729 294.432037,395.740417 286.415955,395.771393
	C194.270172,396.127594 102.122498,395.999542 9.975328,395.990082
	C8.492203,395.989929 7.009089,395.860626 4.685199,395.752472
	C7.471791,389.174347 9.980076,383.001038 12.686793,376.915985
	C18.407131,364.055786 24.227896,351.240204 30.013777,338.409210
	C34.393677,328.696136 38.867115,319.024170 43.143501,309.265808
	C46.894848,300.705566 50.387306,292.032288 54.076473,283.444305
	C56.335308,278.185944 58.794670,273.014099 61.083889,267.768433
	C65.130066,258.496704 69.063911,249.175751 73.141754,239.918121
	C76.504868,232.283081 80.027130,224.718277 83.445061,217.107178
	C89.150520,204.402176 94.828957,191.685043 100.707092,178.640289
z"></path>
<path fill="#003594" opacity="1.000000" stroke="none" d="
M505.674896,87.299896
	C513.892883,93.686394 521.888367,99.768822 529.669495,106.114105
	C535.069824,110.517960 540.663635,114.842690 545.303833,119.985245
	C553.356323,128.909592 561.152039,138.134277 568.277466,147.806183
	C574.742737,156.581970 580.496521,165.934128 585.942078,175.390335
	C589.535583,181.630432 592.083496,188.480438 594.955139,195.119858
	C595.382568,196.108124 595.014526,197.440430 595.014526,198.613571
	C594.557495,198.836685 594.100525,199.059799 593.643494,199.282913
	C590.533386,195.732956 587.612976,191.992233 584.274902,188.671448
	C576.541809,180.978409 569.061523,172.928436 560.623718,166.076004
	C552.424011,159.416931 543.583008,153.260864 534.246887,148.365204
	C524.026367,143.005829 513.125549,138.704346 502.140411,135.103439
	C488.549774,130.648453 474.724213,126.760788 460.114410,126.921104
	C452.001068,127.010132 443.859009,125.807419 435.766113,126.121048
	C423.090729,126.612274 410.368011,127.058052 398.137695,131.354767
	C387.033936,135.255707 375.343903,137.736435 364.661194,142.516830
	C354.089905,147.247345 344.251770,153.756714 334.478851,160.083298
	C327.544220,164.572495 320.854614,169.618652 314.755310,175.183105
	C301.583038,187.200348 290.558624,200.981613 281.110718,216.227142
	C273.778503,228.058716 268.439972,240.666641 264.031036,253.631012
	C260.989044,262.575867 259.605438,272.143799 258.092194,281.531860
	C256.729156,289.988068 256.198212,298.578400 255.251770,307.570068
	C227.190063,307.570068 198.820755,307.570068 169.005066,307.570068
	C182.014694,276.803162 195.826462,247.202698 208.760330,217.223755
	C221.597809,187.468201 235.756165,158.256775 248.091980,127.118439
	C229.866959,127.118439 213.254425,127.118439 196.633347,127.118439
	C196.822403,120.534920 229.054642,93.433662 247.067902,83.383949
	C333.932526,34.921612 419.975922,36.441544 505.674896,87.299896
z"></path>
<path fill="#003594" opacity="1.000000" stroke="none" d="
M467.025085,486.002380
	C479.403839,484.510315 491.285278,483.192902 502.934357,479.715729
	C515.301819,476.024139 527.166870,471.436218 538.506409,465.331940
	C540.239319,464.399109 542.404663,464.269714 544.369995,463.768738
	C544.734131,464.245392 545.098206,464.722015 545.462341,465.198639
	C542.972717,468.449738 540.918640,472.191864 537.911438,474.859528
	C529.009644,482.756195 520.184631,490.872437 510.483521,497.700836
	C498.873871,505.872681 486.745239,513.416138 473.135925,518.161804
	C466.476227,520.484070 460.128113,523.718018 453.437195,525.928650
	C439.509247,530.530273 425.206665,533.746155 410.577271,534.934570
	C397.707031,535.980225 384.775238,536.933289 371.881439,536.808655
	C361.857300,536.711853 351.797394,535.241211 341.849426,533.743347
	C331.612274,532.202026 321.411041,530.222046 311.346558,527.800415
	C304.022003,526.038025 296.827057,523.552307 289.786957,520.837585
	C280.291290,517.175903 270.862183,513.275635 261.665283,508.926422
	C254.590973,505.580963 247.667770,501.766937 241.131363,497.470551
	C232.802200,491.995789 224.505249,486.319000 216.968246,479.830414
	C207.319916,471.524292 197.957947,462.765381 189.377792,453.374512
	C181.745209,445.020752 175.185928,435.657318 168.472198,426.505310
	C165.144226,421.968689 162.534180,416.905457 158.942383,411.000427
	C162.207077,411.000427 163.983063,411.000427 165.759048,411.000427
	C206.589844,411.000427 247.420853,411.056671 288.251068,410.901093
	C291.785187,410.887634 294.173157,411.822083 296.141235,414.612335
	C305.690125,428.150299 318.338898,438.614044 331.313782,448.497498
	C339.315430,454.592651 348.544617,459.101074 357.334808,464.125732
	C361.697571,466.619537 366.165710,469.059875 370.847382,470.835846
	C378.805054,473.854645 386.965363,476.340759 395.048645,479.026245
	C398.021790,480.013977 400.959290,481.229034 404.013367,481.833740
	C422.560272,485.505768 441.261169,487.687927 460.211334,486.952454
	C462.339020,486.869873 464.449036,486.331573 467.025085,486.002380
z"></path>
</svg>
